<?xml version="1.0" encoding="utf-8"?>
<!-- Generator: Adobe Illustrator 26.0.1, SVG Export Plug-In . SVG Version: 6.00 Build 0)  -->
<svg version="1.1" id="Layer_1" xmlns="http://www.w3.org/2000/svg" xmlns:xlink="http://www.w3.org/1999/xlink" x="0px" y="0px"
	 viewBox="0 0 604.43 152.51" style="enable-background:new 0 0 604.43 152.51;" xml:space="preserve">
<style type="text/css">
	.st0{fill:#FFFFFF;}
</style>
<g>
	<g>
		<g>
			<path class="st0" d="M196.75,145.33c-18.91,0-31.89-13.78-31.89-33.75s13.08-33.84,31.98-33.84c19,0,32.07,13.78,32.07,33.75
				S215.74,145.33,196.75,145.33z M196.92,91.52c-10.6,0-16.96,7.51-16.96,19.97c0,12.55,6.36,20.06,16.96,20.06
				c10.51,0,16.88-7.69,16.88-20.06C213.8,99.03,207.44,91.52,196.92,91.52z"/>
			<path class="st0" d="M237.21,144.27v-44.17h12.81l0.88,4.59c2.74-3.8,7.77-6.01,13.52-6.01c10.51,0,16.61,6.71,16.61,18.29v27.3
				h-13.6v-24.03c0-5.56-3.09-9.19-7.77-9.19c-5.39,0-8.84,3.53-8.84,9.01v24.21H237.21z"/>
			<path class="st0" d="M289.68,85.43c0-4.33,3.44-7.69,7.77-7.69c4.24,0,7.69,3.36,7.69,7.69c0,4.33-3.45,7.77-7.69,7.77
				C293.13,93.2,289.68,89.76,289.68,85.43z M290.74,100.09h13.61v44.17h-13.61V100.09z"/>
			<path class="st0" d="M336.59,98.77c14.05,0,24.3,9.37,24.3,23.32c0,13.96-10.25,23.24-24.3,23.24
				c-14.14,0-24.39-9.28-24.39-23.24C312.21,108.13,322.46,98.77,336.59,98.77z M336.59,133.14c6.27,0,10.6-4.42,10.6-11.13
				c0-6.63-4.33-11.04-10.6-11.04c-6.36,0-10.69,4.42-10.69,11.04C325.9,128.72,330.23,133.14,336.59,133.14z"/>
			<path class="st0" d="M368.75,144.27v-44.17h12.81l0.88,4.59c2.74-3.8,7.77-6.01,13.52-6.01c10.51,0,16.61,6.71,16.61,18.29v27.3
				h-13.6v-24.03c0-5.56-3.09-9.19-7.77-9.19c-5.39,0-8.84,3.53-8.84,9.01v24.21H368.75z"/>
		</g>
		<polygon class="st0" points="143.28,7.09 143.28,75.63 122.77,75.63 122.77,27.6 28.62,27.6 28.62,121.76 76.62,121.76 
			76.62,142.27 8.1,142.27 8.1,7.09 		"/>
	</g>
	<g>
		<g>
			<path class="st0" d="M426.52,144.27V111.4h-8.39v-11.31h8.39V86.4h13.61v13.69h8.39v11.31h-8.39v32.87H426.52z"/>
			<path class="st0" d="M452.76,131.28c0-8.13,5.74-13.16,16.35-13.96l12.37-0.97v-0.71c0-4.33-2.65-6.63-7.51-6.63
				c-5.74,0-8.83,2.21-8.83,6.18h-11.31c0-9.98,8.22-16.52,20.85-16.52c12.81,0,20.06,7.16,20.06,19.79v25.8h-12.02l-0.88-5.83
				c-1.41,4.06-7.25,6.98-13.87,6.98C458.59,145.42,452.76,139.94,452.76,131.28z M481.56,127.75v-2.39l-6.89,0.62
				c-5.92,0.53-8.04,1.85-8.04,4.68c0,3.18,1.94,4.68,6.1,4.68C477.94,135.35,481.56,132.78,481.56,127.75z"/>
			<path class="st0" d="M504.44,144.27V77.65h13.61v27.57c2.65-3.98,8.48-6.63,14.84-6.63c12.37,0,20.23,9.63,20.23,24.03
				c0,13.69-8.75,22.8-21.29,22.8c-6.18,0-11.48-2.74-13.87-6.8l-0.71,5.65H504.44z M528.91,132.96c6.45,0,10.52-4.51,10.52-11.04
				c0-6.54-4.06-11.04-10.52-11.04c-6.36,0-10.78,4.42-10.78,11.04C518.13,128.54,522.55,132.96,528.91,132.96z"/>
			<path class="st0" d="M570.7,130.31c0.18,3.09,2.47,4.95,6.63,4.95c4.24,0,6.18-1.5,6.18-3.8c0-1.33-0.71-2.74-3.98-3.45
				l-8.13-1.77c-8.13-1.77-12.1-5.3-12.1-13.07c0-9.19,7.86-14.49,18.47-14.49c10.25,0,17.4,6.01,17.4,14.93h-12.9
				c0-3-1.85-5.04-5.12-5.04c-3.09,0-5.04,1.59-5.04,3.98c0,2.03,1.68,3.18,4.77,3.89l8.22,1.77c7.25,1.59,11.22,4.95,11.22,12.02
				c0,9.45-8.04,15.2-19.53,15.2c-11.66,0-18.99-6.18-18.99-15.11H570.7z"/>
		</g>
		<g>
			<polygon class="st0" points="107.39,42.96 107.39,75.63 97.13,75.63 97.13,53.21 54.25,53.21 54.25,96.14 76.62,96.14 
				76.62,106.4 44,106.4 44,42.96 			"/>
			<polygon class="st0" points="114.67,106.4 122.77,114.51 130.02,121.76 143.28,135.01 143.28,142.27 136.03,142.27 
				122.77,129.01 115.52,121.76 107.39,113.63 107.39,131.31 97.13,131.31 97.13,96.15 133.33,96.15 133.33,106.4 			"/>
		</g>
	</g>
</g>
</svg>
