<?xml version="1.0" encoding="UTF-8"?>
<svg width="122px" height="26px" viewBox="0 0 122 26" version="1.1" xmlns="http://www.w3.org/2000/svg" xmlns:xlink="http://www.w3.org/1999/xlink">
    <!-- Generator: Sketch 53 (72520) - https://sketchapp.com -->
    <title>Logo-dark</title>
    <desc>Created with Sketch.</desc>
    <g id="Page-1" stroke="none" stroke-width="1" fill="none" fill-rule="evenodd">
        <g id="Logo-dark" fill="#004346">
            <path d="M67.8072151,7.57502642 L66.220234,7.33464906 C64.5949887,7.09525283 63.3023472,6.83623396 63.3023472,5.80212075 C63.3023472,4.82344151 64.2255925,4.17736604 66.0534415,4.17736604 C68.0652528,4.19649811 70.336083,4.9348 71.7587245,5.63630943 L73.4212528,1.75298868 C71.0395547,0.589366038 68.5769132,0.000196226415 65.7154415,0.000196226415 C61.0074792,0.000196226415 58.3540075,2.36864906 58.3540075,6.04249811 C58.3540075,9.08842264 60.4035925,10.8981208 64.5395547,11.4706113 L65.9980075,11.6732151 C68.0652528,11.9690264 68.9708377,12.4488 68.9708377,13.3166113 C68.9708377,14.3688755 67.8243849,14.8461962 65.5903472,14.8461962 C62.8951774,14.8461962 61.4705736,14.2246491 59.6731396,13.1424604 L57.6716302,16.8987245 C59.9978943,18.5411396 63.3931019,19.2043849 65.830234,19.2043849 C71.0184604,19.2043849 73.8446113,16.6215547 73.8446113,12.9290642 C73.8446113,9.9008 71.6846491,8.16566792 67.8072151,7.57502642" id="Fill-1"></path>
            <path d="M108.862442,14.2891585 C106.124102,14.2891585 103.904781,12.1836491 103.904781,9.58561132 C103.904781,6.98757358 106.124102,4.88206415 108.862442,4.88206415 C111.600781,4.88206415 113.820102,6.98757358 113.820102,9.58561132 C113.820102,12.1836491 111.600781,14.2891585 108.862442,14.2891585 M120.594819,14.2886679 C119.62546,14.2886679 119.266366,13.7147057 119.266366,12.2778377 L119.266366,0.538101887 L113.916743,0.538101887 L113.916743,1.70025283 C112.356743,0.630328302 110.467083,-4.90566038e-05 108.426328,-4.90566038e-05 C103.087498,-4.90566038e-05 98.7587434,4.29191321 98.7587434,9.58561132 C98.7587434,14.8793094 103.087498,19.1712717 108.426328,19.1712717 C110.839423,19.1712717 113.041083,18.2882528 114.735008,16.8386302 C115.029347,17.3949321 115.494404,17.8869698 116.142442,18.3098377 C116.896442,18.7410453 117.902102,18.9564038 119.086328,18.9564038 C120.1278,18.9564038 120.917611,18.8479887 121.492064,18.6689321 L121.492064,14.2170453 C121.492064,14.2170453 121.193309,14.2886679 120.594819,14.2886679" id="Fill-3"></path>
            <path d="M86.6930755,14.2891585 C83.9547358,14.2891585 81.7354151,12.1836491 81.7354151,9.58561132 C81.7354151,6.98757358 83.9547358,4.88206415 86.6930755,4.88206415 C89.4314151,4.88206415 91.6507358,6.98757358 91.6507358,9.58561132 C91.6507358,12.1836491 89.4314151,14.2891585 86.6930755,14.2891585 M87.1291887,-4.90566038e-05 C85.0918679,-4.90566038e-05 83.2046604,0.627875472 81.6461321,1.6948566 L81.6461321,0.538101887 L76.2974906,0.538101887 L76.2974906,25.5618755 L81.6461321,25.5618755 L81.6461321,17.476366 C83.2046604,18.5433472 85.0918679,19.1712717 87.1291887,19.1712717 C92.4680189,19.1712717 96.7967736,14.8793094 96.7967736,9.58561132 C96.7967736,4.29191321 92.4680189,-4.90566038e-05 87.1291887,-4.90566038e-05" id="Fill-5"></path>
            <path d="M10.395683,14.2891585 C7.6573434,14.2891585 5.43802264,12.1836491 5.43802264,9.58561132 C5.43802264,6.98757358 7.6573434,4.88206415 10.395683,4.88206415 C13.1340226,4.88206415 15.3533434,6.98757358 15.3533434,9.58561132 C15.3533434,12.1836491 13.1340226,14.2891585 10.395683,14.2891585 M10.8317962,-4.90566038e-05 C8.79447547,-4.90566038e-05 6.90726792,0.627875472 5.34873962,1.6948566 L5.34873962,0.538101887 L9.81132075e-05,0.538101887 L9.81132075e-05,25.5618755 L5.34873962,25.5618755 L5.34873962,17.476366 C6.90726792,18.5433472 8.79447547,19.1712717 10.8317962,19.1712717 C16.171117,19.1712717 20.4993811,14.8793094 20.4993811,9.58561132 C20.4993811,4.29191321 16.171117,-4.90566038e-05 10.8317962,-4.90566038e-05" id="Fill-7"></path>
            <path d="M33.6542038,0.5382 C33.6542038,0.5382 29.9857509,0.5382 28.3006566,3.01212453 L28.3006566,0.5382 L22.9520151,0.5382 L22.9520151,18.6327283 L28.3006566,18.6327283 L28.3006566,10.1557472 C28.8034868,5.90303019 33.6542038,5.83729434 33.6542038,5.83729434 C34.0991472,3.98933208 35.2632604,0.666728302 35.2632604,0.666728302 C34.2311094,0.513181132 33.6542038,0.5382 33.6542038,0.5382" id="Fill-9"></path>
            <path d="M48.9951849,12.9602151 C48.0979396,13.8584415 46.9843547,14.3244792 45.6559019,14.3244792 C44.3274491,14.3244792 43.2153358,13.8584415 42.3171094,12.9602151 C41.4198642,12.0629698 40.9533358,10.9145547 40.9533358,9.58610189 C40.9533358,8.25764906 41.4198642,7.14455472 42.3171094,6.24681887 C43.2153358,5.31376226 44.3274491,4.84625283 45.6559019,4.84625283 C46.9843547,4.84625283 48.0979396,5.31376226 48.9951849,6.24681887 C49.8924302,7.14455472 50.3594491,8.25764906 50.3594491,9.58610189 C50.3594491,10.9145547 49.8924302,12.0271585 48.9951849,12.9602151 M45.6559019,-4.90566038e-05 C42.8562415,-4.90566038e-05 40.486317,0.933007547 38.5117887,2.80010189 C36.5730717,4.63138491 35.6037132,6.89338491 35.6037132,9.58610189 C35.6037132,12.2778377 36.5730717,14.5398377 38.5117887,16.4069321 C40.486317,18.2382151 42.8562415,19.1712717 45.6559019,19.1712717 C48.4212226,19.1712717 50.7906566,18.2382151 52.7656755,16.4069321 C54.7397132,14.5398377 55.7095623,12.2778377 55.7095623,9.58610189 C55.7095623,6.89338491 54.7397132,4.63138491 52.7656755,2.80010189 C50.7906566,0.933007547 48.4212226,-4.90566038e-05 45.6559019,-4.90566038e-05" id="Fill-11"></path>
        </g>
    </g>
</svg>